<svg width="182" height="182" viewBox="0 0 182 182" fill="none" xmlns="http://www.w3.org/2000/svg">
<rect width="182" height="182" rx="12" fill="white"/>
<path d="M49.5644 117.476C47.683 117.476 45.9377 117.181 44.3284 116.592C42.7417 115.98 41.359 115.119 40.1804 114.008C39.0244 112.897 38.1177 111.594 37.4604 110.098C36.803 108.579 36.4744 106.913 36.4744 105.1C36.4744 103.287 36.803 101.632 37.4604 100.136C38.1177 98.6173 39.0244 97.3027 40.1804 96.192C41.359 95.0813 42.7417 94.2313 44.3284 93.642C45.9377 93.03 47.683 92.724 49.5644 92.724C51.763 92.724 53.7237 93.1093 55.4464 93.88C57.1917 94.6507 58.6424 95.7613 59.7984 97.212L55.5144 101.088C54.7437 100.181 53.8937 99.49 52.9644 99.014C52.0577 98.538 51.0377 98.3 49.9044 98.3C48.9297 98.3 48.0344 98.4587 47.2184 98.776C46.4024 99.0933 45.6997 99.558 45.1104 100.17C44.5437 100.759 44.0904 101.473 43.7504 102.312C43.433 103.151 43.2744 104.08 43.2744 105.1C43.2744 106.12 43.433 107.049 43.7504 107.888C44.0904 108.727 44.5437 109.452 45.1104 110.064C45.6997 110.653 46.4024 111.107 47.2184 111.424C48.0344 111.741 48.9297 111.9 49.9044 111.9C51.0377 111.9 52.0577 111.662 52.9644 111.186C53.8937 110.71 54.7437 110.019 55.5144 109.112L59.7984 112.988C58.6424 114.416 57.1917 115.527 55.4464 116.32C53.7237 117.091 51.763 117.476 49.5644 117.476ZM62.4939 117V98.572H68.6479V103.944L67.7299 102.414C68.2739 101.031 69.1579 100 70.3819 99.32C71.6059 98.6173 73.0906 98.266 74.8359 98.266V104.08C74.5413 104.035 74.2806 104.012 74.0539 104.012C73.8499 103.989 73.6233 103.978 73.3739 103.978C72.0593 103.978 70.9939 104.341 70.1779 105.066C69.3619 105.769 68.9539 106.925 68.9539 108.534V117H62.4939ZM86.9917 117.306C84.8157 117.306 82.9117 116.898 81.2797 116.082C79.6704 115.243 78.4124 114.11 77.5057 112.682C76.6217 111.231 76.1797 109.588 76.1797 107.752C76.1797 105.916 76.6104 104.284 77.4717 102.856C78.3557 101.405 79.5684 100.283 81.1097 99.49C82.6511 98.674 84.3851 98.266 86.3117 98.266C88.1251 98.266 89.7797 98.64 91.2757 99.388C92.7717 100.113 93.9617 101.19 94.8457 102.618C95.7297 104.046 96.1717 105.78 96.1717 107.82C96.1717 108.047 96.1604 108.307 96.1377 108.602C96.1151 108.897 96.0924 109.169 96.0697 109.418H81.4837V106.018H92.6357L90.1877 106.97C90.2104 106.131 90.0517 105.406 89.7117 104.794C89.3944 104.182 88.9411 103.706 88.3517 103.366C87.7851 103.026 87.1164 102.856 86.3457 102.856C85.5751 102.856 84.8951 103.026 84.3057 103.366C83.7391 103.706 83.2971 104.193 82.9797 104.828C82.6624 105.44 82.5037 106.165 82.5037 107.004V107.99C82.5037 108.897 82.6851 109.679 83.0477 110.336C83.4331 110.993 83.9771 111.503 84.6797 111.866C85.3824 112.206 86.2211 112.376 87.1957 112.376C88.1024 112.376 88.8731 112.251 89.5077 112.002C90.1651 111.73 90.8111 111.322 91.4457 110.778L94.8457 114.314C93.9617 115.289 92.8737 116.037 91.5817 116.558C90.2897 117.057 88.7597 117.306 86.9917 117.306ZM107.174 117.306C105.497 117.306 103.967 116.921 102.584 116.15C101.224 115.357 100.136 114.257 99.3202 112.852C98.5042 111.424 98.0962 109.724 98.0962 107.752C98.0962 105.803 98.5042 104.125 99.3202 102.72C100.136 101.292 101.224 100.193 102.584 99.422C103.967 98.6513 105.497 98.266 107.174 98.266C108.761 98.266 110.098 98.606 111.186 99.286C112.297 99.966 113.136 101.009 113.702 102.414C114.269 103.819 114.552 105.599 114.552 107.752C114.552 109.951 114.28 111.753 113.736 113.158C113.192 114.563 112.376 115.606 111.288 116.286C110.2 116.966 108.829 117.306 107.174 117.306ZM108.534 112.172C109.26 112.172 109.906 112.002 110.472 111.662C111.062 111.322 111.526 110.823 111.866 110.166C112.206 109.486 112.376 108.681 112.376 107.752C112.376 106.823 112.206 106.041 111.866 105.406C111.526 104.749 111.062 104.25 110.472 103.91C109.906 103.57 109.26 103.4 108.534 103.4C107.786 103.4 107.118 103.57 106.528 103.91C105.962 104.25 105.508 104.749 105.168 105.406C104.828 106.041 104.658 106.823 104.658 107.752C104.658 108.681 104.828 109.486 105.168 110.166C105.508 110.823 105.962 111.322 106.528 111.662C107.118 112.002 107.786 112.172 108.534 112.172ZM112.58 117V113.838L112.614 107.752L112.274 101.666V91.772H118.734V117H112.58ZM122.89 117V98.572H129.35V117H122.89ZM126.12 96.532C124.942 96.532 123.99 96.2033 123.264 95.546C122.539 94.8887 122.176 94.0727 122.176 93.098C122.176 92.1233 122.539 91.3073 123.264 90.65C123.99 89.9927 124.942 89.664 126.12 89.664C127.299 89.664 128.251 89.9813 128.976 90.616C129.702 91.228 130.064 92.0213 130.064 92.996C130.064 94.016 129.702 94.866 128.976 95.546C128.274 96.2033 127.322 96.532 126.12 96.532ZM141.777 117.306C139.419 117.306 137.583 116.728 136.269 115.572C134.954 114.393 134.297 112.625 134.297 110.268V94.458H140.757V110.2C140.757 110.857 140.938 111.379 141.301 111.764C141.663 112.127 142.128 112.308 142.695 112.308C143.465 112.308 144.123 112.115 144.667 111.73L146.265 116.252C145.721 116.615 145.052 116.875 144.259 117.034C143.465 117.215 142.638 117.306 141.777 117.306ZM131.611 104.08V99.252H144.973V104.08H131.611Z" fill="#0048FC"/>
<path d="M47.3503 135V121.909H52.0165C53.035 121.909 53.8787 122.094 54.5478 122.465C55.2168 122.836 55.7175 123.343 56.0499 123.987C56.3823 124.626 56.5485 125.346 56.5485 126.147C56.5485 126.952 56.3801 127.677 56.0435 128.32C55.7111 128.96 55.2083 129.467 54.535 129.842C53.8659 130.212 53.0243 130.398 52.0101 130.398H48.8013V128.723H51.8311C52.4746 128.723 52.9966 128.612 53.3972 128.391C53.7978 128.165 54.0918 127.858 54.2793 127.47C54.4668 127.082 54.5605 126.641 54.5605 126.147C54.5605 125.653 54.4668 125.214 54.2793 124.83C54.0918 124.447 53.7956 124.146 53.3908 123.929C52.9902 123.712 52.4618 123.603 51.8056 123.603H49.3255V135H47.3503ZM58.7106 135V125.182H60.5579V126.741H60.6602C60.8391 126.213 61.1545 125.798 61.6062 125.495C62.0621 125.188 62.5778 125.035 63.1531 125.035C63.2724 125.035 63.413 125.039 63.5749 125.048C63.7411 125.056 63.8711 125.067 63.9648 125.08V126.908C63.8881 126.886 63.7518 126.863 63.5558 126.837C63.3597 126.808 63.1637 126.793 62.9677 126.793C62.516 126.793 62.1133 126.888 61.7596 127.08C61.4102 127.268 61.1332 127.53 60.9286 127.866C60.7241 128.199 60.6218 128.578 60.6218 129.004V135H58.7106ZM69.4029 135.198C68.4824 135.198 67.6792 134.987 66.9931 134.565C66.307 134.143 65.7743 133.553 65.3951 132.795C65.0158 132.036 64.8262 131.15 64.8262 130.136C64.8262 129.117 65.0158 128.227 65.3951 127.464C65.7743 126.701 66.307 126.109 66.9931 125.687C67.6792 125.265 68.4824 125.054 69.4029 125.054C70.3233 125.054 71.1266 125.265 71.8127 125.687C72.4988 126.109 73.0314 126.701 73.4107 127.464C73.79 128.227 73.9796 129.117 73.9796 130.136C73.9796 131.15 73.79 132.036 73.4107 132.795C73.0314 133.553 72.4988 134.143 71.8127 134.565C71.1266 134.987 70.3233 135.198 69.4029 135.198ZM69.4093 133.594C70.0059 133.594 70.5002 133.436 70.8922 133.121C71.2843 132.805 71.574 132.386 71.7615 131.862C71.9533 131.337 72.0492 130.76 72.0492 130.129C72.0492 129.503 71.9533 128.928 71.7615 128.403C71.574 127.875 71.2843 127.451 70.8922 127.131C70.5002 126.812 70.0059 126.652 69.4093 126.652C68.8084 126.652 68.3098 126.812 67.9135 127.131C67.5215 127.451 67.2296 127.875 67.0378 128.403C66.8503 128.928 66.7566 129.503 66.7566 130.129C66.7566 130.76 66.8503 131.337 67.0378 131.862C67.2296 132.386 67.5215 132.805 67.9135 133.121C68.3098 133.436 68.8084 133.594 69.4093 133.594ZM76.1129 135V125.182H77.9474V126.78H78.0689C78.2734 126.239 78.608 125.817 79.0724 125.514C79.5369 125.207 80.093 125.054 80.7408 125.054C81.397 125.054 81.9467 125.207 82.3899 125.514C82.8374 125.821 83.1676 126.243 83.3807 126.78H83.483C83.7173 126.256 84.0902 125.838 84.6016 125.527C85.1129 125.212 85.7223 125.054 86.4297 125.054C87.3203 125.054 88.0469 125.333 88.6094 125.891C89.1761 126.45 89.4595 127.291 89.4595 128.416V135H87.5483V128.595C87.5483 127.93 87.3672 127.449 87.005 127.151C86.6428 126.852 86.2102 126.703 85.7074 126.703C85.0852 126.703 84.6016 126.895 84.2564 127.278C83.9112 127.658 83.7386 128.146 83.7386 128.742V135H81.8338V128.474C81.8338 127.941 81.6676 127.513 81.3352 127.189C81.0028 126.865 80.5703 126.703 80.0376 126.703C79.6754 126.703 79.3409 126.799 79.0341 126.991C78.7315 127.178 78.4865 127.44 78.299 127.777C78.1158 128.114 78.0241 128.504 78.0241 128.947V135H76.1129ZM96.1568 135.198C95.2363 135.198 94.4331 134.987 93.747 134.565C93.0609 134.143 92.5282 133.553 92.149 132.795C91.7697 132.036 91.5801 131.15 91.5801 130.136C91.5801 129.117 91.7697 128.227 92.149 127.464C92.5282 126.701 93.0609 126.109 93.747 125.687C94.4331 125.265 95.2363 125.054 96.1568 125.054C97.0772 125.054 97.8805 125.265 98.5666 125.687C99.2527 126.109 99.7853 126.701 100.165 127.464C100.544 128.227 100.733 129.117 100.733 130.136C100.733 131.15 100.544 132.036 100.165 132.795C99.7853 133.553 99.2527 134.143 98.5666 134.565C97.8805 134.987 97.0772 135.198 96.1568 135.198ZM96.1632 133.594C96.7598 133.594 97.2541 133.436 97.6461 133.121C98.0382 132.805 98.3279 132.386 98.5154 131.862C98.7072 131.337 98.8031 130.76 98.8031 130.129C98.8031 129.503 98.7072 128.928 98.5154 128.403C98.3279 127.875 98.0382 127.451 97.6461 127.131C97.2541 126.812 96.7598 126.652 96.1632 126.652C95.5623 126.652 95.0637 126.812 94.6674 127.131C94.2754 127.451 93.9835 127.875 93.7917 128.403C93.6042 128.928 93.5105 129.503 93.5105 130.129C93.5105 130.76 93.6042 131.337 93.7917 131.862C93.9835 132.386 94.2754 132.805 94.6674 133.121C95.0637 133.436 95.5623 133.594 96.1632 133.594ZM107.45 125.182V126.716H102.087V125.182H107.45ZM103.525 122.83H105.436V132.117C105.436 132.488 105.492 132.767 105.603 132.955C105.713 133.138 105.856 133.263 106.031 133.332C106.21 133.396 106.404 133.428 106.613 133.428C106.766 133.428 106.9 133.417 107.015 133.396C107.13 133.374 107.22 133.357 107.284 133.344L107.629 134.923C107.518 134.966 107.36 135.009 107.156 135.051C106.951 135.098 106.696 135.124 106.389 135.128C105.886 135.136 105.417 135.047 104.983 134.859C104.548 134.672 104.196 134.382 103.928 133.99C103.659 133.598 103.525 133.106 103.525 132.513V122.83ZM113.594 135.198C112.674 135.198 111.871 134.987 111.184 134.565C110.498 134.143 109.966 133.553 109.586 132.795C109.207 132.036 109.018 131.15 109.018 130.136C109.018 129.117 109.207 128.227 109.586 127.464C109.966 126.701 110.498 126.109 111.184 125.687C111.871 125.265 112.674 125.054 113.594 125.054C114.515 125.054 115.318 125.265 116.004 125.687C116.69 126.109 117.223 126.701 117.602 127.464C117.981 128.227 118.171 129.117 118.171 130.136C118.171 131.15 117.981 132.036 117.602 132.795C117.223 133.553 116.69 134.143 116.004 134.565C115.318 134.987 114.515 135.198 113.594 135.198ZM113.601 133.594C114.197 133.594 114.692 133.436 115.084 133.121C115.476 132.805 115.765 132.386 115.953 131.862C116.145 131.337 116.241 130.76 116.241 130.129C116.241 129.503 116.145 128.928 115.953 128.403C115.765 127.875 115.476 127.451 115.084 127.131C114.692 126.812 114.197 126.652 113.601 126.652C113 126.652 112.501 126.812 112.105 127.131C111.713 127.451 111.421 127.875 111.229 128.403C111.042 128.928 110.948 129.503 110.948 130.129C110.948 130.76 111.042 131.337 111.229 131.862C111.421 132.386 111.713 132.805 112.105 133.121C112.501 133.436 113 133.594 113.601 133.594ZM120.304 135V125.182H122.152V126.741H122.254C122.433 126.213 122.748 125.798 123.2 125.495C123.656 125.188 124.172 125.035 124.747 125.035C124.866 125.035 125.007 125.039 125.169 125.048C125.335 125.056 125.465 125.067 125.559 125.08V126.908C125.482 126.886 125.346 126.863 125.15 126.837C124.953 126.808 124.757 126.793 124.561 126.793C124.11 126.793 123.707 126.888 123.353 127.08C123.004 127.268 122.727 127.53 122.522 127.866C122.318 128.199 122.216 128.578 122.216 129.004V135H120.304ZM129.982 135.217C129.36 135.217 128.797 135.102 128.294 134.872C127.792 134.638 127.393 134.299 127.099 133.856C126.809 133.413 126.664 132.869 126.664 132.226C126.664 131.672 126.771 131.216 126.984 130.858C127.197 130.5 127.485 130.217 127.847 130.008C128.209 129.799 128.614 129.641 129.061 129.535C129.509 129.428 129.965 129.347 130.429 129.292C131.017 129.224 131.495 129.168 131.861 129.126C132.228 129.079 132.494 129.004 132.66 128.902C132.826 128.8 132.909 128.634 132.909 128.403V128.359C132.909 127.8 132.752 127.368 132.436 127.061C132.125 126.754 131.661 126.601 131.043 126.601C130.4 126.601 129.892 126.744 129.522 127.029C129.155 127.31 128.902 127.624 128.761 127.969L126.965 127.56C127.178 126.963 127.489 126.482 127.898 126.115C128.311 125.744 128.787 125.476 129.324 125.31C129.86 125.139 130.425 125.054 131.017 125.054C131.409 125.054 131.825 125.101 132.264 125.195C132.707 125.284 133.12 125.45 133.504 125.693C133.892 125.936 134.209 126.283 134.456 126.735C134.703 127.183 134.827 127.764 134.827 128.48V135H132.961V133.658H132.884C132.76 133.905 132.575 134.148 132.328 134.386C132.081 134.625 131.763 134.823 131.375 134.981C130.988 135.138 130.523 135.217 129.982 135.217ZM130.397 133.683C130.926 133.683 131.377 133.579 131.752 133.37C132.132 133.161 132.419 132.888 132.615 132.552C132.816 132.211 132.916 131.847 132.916 131.459V130.193C132.848 130.261 132.716 130.325 132.52 130.385C132.328 130.44 132.108 130.489 131.861 130.532C131.614 130.57 131.373 130.607 131.139 130.641C130.904 130.67 130.708 130.696 130.551 130.717C130.18 130.764 129.841 130.843 129.534 130.954C129.232 131.065 128.989 131.224 128.806 131.433C128.627 131.638 128.537 131.911 128.537 132.251C128.537 132.724 128.712 133.082 129.061 133.325C129.411 133.564 129.856 133.683 130.397 133.683Z" fill="black"/>
<path d="M78.6096 42C77.1038 42 75.8872 43.2289 75.8872 44.75C75.8872 46.2711 77.1038 47.5 78.6096 47.5H82.9228L65.7976 64.8078C64.7341 65.882 64.7341 67.6266 65.7976 68.7008C66.861 69.775 68.588 69.775 69.6514 68.7008L86.7766 51.393V55.75C86.7766 57.2711 87.9931 58.5 89.4989 58.5C91.0047 58.5 92.2213 57.2711 92.2213 55.75V44.75C92.2213 43.2289 91.0047 42 89.4989 42H78.6096ZM114 48.875C114 47.781 113.57 46.7318 112.804 45.9582C112.038 45.1846 111 44.75 109.916 44.75C108.833 44.75 107.795 45.1846 107.029 45.9582C106.263 46.7318 105.833 47.781 105.833 48.875C105.833 49.969 106.263 51.0182 107.029 51.7918C107.795 52.5654 108.833 53 109.916 53C111 53 112.038 52.5654 112.804 51.7918C113.57 51.0182 114 49.969 114 48.875ZM103.111 59.875C103.111 59.3333 103.005 58.7969 102.8 58.2964C102.595 57.796 102.294 57.3412 101.915 56.9582C101.535 56.5751 101.085 56.2713 100.59 56.064C100.094 55.8567 99.5634 55.75 99.0271 55.75C98.4909 55.75 97.9599 55.8567 97.4644 56.064C96.969 56.2713 96.5188 56.5751 96.1397 56.9582C95.7605 57.3412 95.4597 57.796 95.2545 58.2964C95.0492 58.7969 94.9436 59.3333 94.9436 59.875C94.9436 60.4167 95.0492 60.9531 95.2545 61.4536C95.4597 61.954 95.7605 62.4088 96.1397 62.7918C96.5188 63.1749 96.969 63.4787 97.4644 63.686C97.9599 63.8933 98.4909 64 99.0271 64C99.5634 64 100.094 63.8933 100.59 63.686C101.085 63.4787 101.535 63.1749 101.915 62.7918C102.294 62.4088 102.595 61.954 102.8 61.4536C103.005 60.9531 103.111 60.4167 103.111 59.875ZM99.0271 75C100.11 75 101.149 74.5654 101.915 73.7918C102.68 73.0182 103.111 71.969 103.111 70.875C103.111 69.781 102.68 68.7318 101.915 67.9582C101.149 67.1846 100.11 66.75 99.0271 66.75C97.9441 66.75 96.9055 67.1846 96.1397 67.9582C95.3738 68.7318 94.9436 69.781 94.9436 70.875C94.9436 71.969 95.3738 73.0182 96.1397 73.7918C96.9055 74.5654 97.9441 75 99.0271 75ZM103.111 81.875C103.111 81.3333 103.005 80.7969 102.8 80.2964C102.595 79.796 102.294 79.3412 101.915 78.9582C101.535 78.5751 101.085 78.2713 100.59 78.064C100.094 77.8567 99.5634 77.75 99.0271 77.75C98.4909 77.75 97.9599 77.8567 97.4644 78.064C96.969 78.2713 96.5188 78.5751 96.1397 78.9582C95.7605 79.3412 95.4597 79.796 95.2545 80.2964C95.0492 80.7969 94.9436 81.3333 94.9436 81.875C94.9436 82.4167 95.0492 82.9531 95.2545 83.4536C95.4597 83.954 95.7605 84.4088 96.1397 84.7918C96.5188 85.1749 96.969 85.4787 97.4644 85.686C97.9599 85.8933 98.4909 86 99.0271 86C99.5634 86 100.094 85.8933 100.59 85.686C101.085 85.4787 101.535 85.1749 101.915 84.7918C102.294 84.4088 102.595 83.954 102.8 83.4536C103.005 82.9531 103.111 82.4167 103.111 81.875ZM114 81.875C114 80.781 113.57 79.7318 112.804 78.9582C112.038 78.1846 111 77.75 109.916 77.75C108.833 77.75 107.795 78.1846 107.029 78.9582C106.263 79.7318 105.833 80.781 105.833 81.875C105.833 82.969 106.263 84.0182 107.029 84.7918C107.795 85.5654 108.833 86 109.916 86C111 86 112.038 85.5654 112.804 84.7918C113.57 84.0182 114 82.969 114 81.875ZM88.1378 75C89.2208 75 90.2594 74.5654 91.0252 73.7918C91.7911 73.0182 92.2213 71.969 92.2213 70.875C92.2213 69.781 91.7911 68.7318 91.0252 67.9582C90.2594 67.1846 89.2208 66.75 88.1378 66.75C87.0548 66.75 86.0161 67.1846 85.2503 67.9582C84.4845 68.7318 84.0543 69.781 84.0543 70.875C84.0543 71.969 84.4845 73.0182 85.2503 73.7918C86.0161 74.5654 87.0548 75 88.1378 75ZM92.2213 81.875C92.2213 80.781 91.7911 79.7318 91.0252 78.9582C90.2594 78.1846 89.2208 77.75 88.1378 77.75C87.0548 77.75 86.0161 78.1846 85.2503 78.9582C84.4845 79.7318 84.0543 80.781 84.0543 81.875C84.0543 82.969 84.4845 84.0182 85.2503 84.7918C86.0161 85.5654 87.0548 86 88.1378 86C89.2208 86 90.2594 85.5654 91.0252 84.7918C91.7911 84.0182 92.2213 82.969 92.2213 81.875ZM77.2484 86C78.3314 86 79.3701 85.5654 80.1359 84.7918C80.9017 84.0182 81.3319 82.969 81.3319 81.875C81.3319 80.781 80.9017 79.7318 80.1359 78.9582C79.3701 78.1846 78.3314 77.75 77.2484 77.75C76.1654 77.75 75.1267 78.1846 74.3609 78.9582C73.5951 79.7318 73.1649 80.781 73.1649 81.875C73.1649 82.969 73.5951 84.0182 74.3609 84.7918C75.1267 85.5654 76.1654 86 77.2484 86ZM114 70.875C114 69.781 113.57 68.7318 112.804 67.9582C112.038 67.1846 111 66.75 109.916 66.75C108.833 66.75 107.795 67.1846 107.029 67.9582C106.263 68.7318 105.833 69.781 105.833 70.875C105.833 71.969 106.263 73.0182 107.029 73.7918C107.795 74.5654 108.833 75 109.916 75C111 75 112.038 74.5654 112.804 73.7918C113.57 73.0182 114 71.969 114 70.875ZM109.916 64C111 64 112.038 63.5654 112.804 62.7918C113.57 62.0182 114 60.969 114 59.875C114 58.781 113.57 57.7318 112.804 56.9582C112.038 56.1846 111 55.75 109.916 55.75C108.833 55.75 107.795 56.1846 107.029 56.9582C106.263 57.7318 105.833 58.781 105.833 59.875C105.833 60.969 106.263 62.0182 107.029 62.7918C107.795 63.5654 108.833 64 109.916 64Z" fill="#0048FC" fill-opacity="0.93"/>
</svg>
