<svg width="3400" height="3400" viewBox="0 0 3400 3400" fill="none" xmlns="http://www.w3.org/2000/svg">
<path d="M0 0H3400V3400H0V0Z" fill="white"/>
<path d="M784.326 1876.84C772.021 1876.38 761.54 1872.05 752.881 1863.85C744.222 1855.19 739.665 1844.71 739.209 1832.4V1662.19C739.665 1629.83 744.222 1599.3 752.881 1570.59C761.995 1541.88 776.807 1517.72 797.314 1498.12C818.278 1478.07 844.71 1467.14 876.611 1465.31H1140.48C1152.78 1465.77 1163.04 1470.33 1171.24 1478.98C1179.9 1487.19 1184.46 1497.44 1184.91 1509.75C1184.91 1522.51 1180.58 1533.44 1171.92 1542.56C1163.72 1551.67 1153.24 1556.46 1140.48 1556.91H899.854C882.536 1557.83 868.18 1564.43 856.787 1576.74C845.394 1589.04 838.102 1603.17 834.912 1619.12C832.178 1634.62 831.038 1651.71 831.494 1670.39V1832.4C831.038 1845.16 826.253 1855.87 817.139 1864.53C808.024 1872.73 797.087 1876.84 784.326 1876.84ZM863.623 1697.05C863.623 1684.29 868.18 1673.58 877.295 1664.92C885.954 1655.81 896.663 1651.25 909.424 1651.25H1140.48C1153.24 1651.25 1163.95 1655.81 1172.61 1664.92C1181.72 1673.58 1186.28 1684.29 1186.28 1697.05C1186.28 1709.81 1181.95 1720.75 1173.29 1729.86C1164.18 1738.52 1153.24 1742.85 1140.48 1742.85H909.424C896.663 1742.85 885.726 1738.52 876.611 1729.86C867.952 1720.75 863.623 1709.81 863.623 1697.05ZM1295.65 1551.45C1307.96 1551.9 1318.44 1556.46 1327.1 1565.12C1335.76 1573.32 1340.32 1583.57 1340.77 1595.88V1832.4C1338.04 1859.75 1323 1874.56 1295.65 1876.84C1282.89 1876.84 1271.73 1872.73 1262.16 1864.53C1253.04 1855.87 1248.49 1845.16 1248.49 1832.4V1595.88C1248.94 1583.12 1253.73 1572.64 1262.84 1564.43C1271.96 1555.77 1282.89 1551.45 1295.65 1551.45ZM1238.23 1462.58C1238.23 1449.82 1243.7 1438.88 1254.64 1429.77C1265.58 1420.65 1278.79 1416.09 1294.29 1416.09C1309.78 1416.09 1323 1420.65 1333.94 1429.77C1344.87 1438.88 1350.34 1449.82 1350.34 1462.58C1350.34 1475.79 1344.87 1486.96 1333.94 1496.07C1323 1505.19 1309.78 1509.75 1294.29 1509.75C1278.79 1509.75 1265.58 1505.19 1254.64 1496.07C1243.7 1486.96 1238.23 1475.79 1238.23 1462.58ZM1807.67 1667.66C1807.67 1656.26 1801.74 1650.34 1789.89 1649.88H1550.63C1541.98 1650.34 1534.46 1654.21 1528.08 1661.5C1521.7 1668.34 1516.91 1676.54 1513.72 1686.11C1510.99 1695.23 1509.62 1704.57 1509.62 1714.14C1509.62 1723.26 1510.99 1732.6 1513.72 1742.17C1516.91 1751.28 1521.7 1759.49 1528.08 1766.78C1534.46 1773.61 1541.98 1777.03 1550.63 1777.03H1725.63C1738.4 1777.03 1749.1 1781.59 1757.76 1790.7C1766.88 1799.36 1771.44 1810.07 1771.44 1822.83C1771.44 1835.59 1766.88 1846.3 1757.76 1854.96C1749.1 1864.08 1738.4 1868.63 1725.63 1868.63H1553.37C1521.47 1868.18 1495.04 1859.29 1474.07 1841.97C1453.56 1824.2 1438.75 1804.38 1429.64 1782.5C1420.98 1760.17 1416.65 1737.15 1416.65 1713.46C1416.65 1690.67 1421.21 1668.34 1430.32 1646.46C1439.44 1624.13 1454.25 1604.31 1474.76 1586.99C1495.26 1569.22 1525.57 1559.65 1565.67 1558.28H1852.78C1865.54 1558.28 1876.48 1562.61 1885.6 1571.27C1894.71 1579.47 1899.5 1589.95 1899.95 1602.71V1818.73C1899.95 1855.19 1894.94 1889.6 1884.91 1921.95C1875.8 1950.66 1860.76 1974.82 1839.79 1994.41C1819.29 2014.47 1793.08 2025.4 1761.18 2027.23H1524.66C1512.35 2026.77 1501.87 2022.21 1493.21 2013.55C1485.01 2005.35 1480.68 1995.1 1480.22 1982.79C1480.22 1970.03 1484.33 1959.1 1492.53 1949.98C1501.19 1940.87 1511.9 1936.08 1524.66 1935.62H1737.94C1755.26 1934.71 1769.61 1928.11 1781.01 1915.8C1792.4 1903.5 1799.69 1889.14 1802.88 1872.73C1806.07 1856.33 1807.67 1835.14 1807.67 1809.16V1667.66ZM2039.4 1551.45C2051.71 1551.9 2062.19 1556.46 2070.85 1565.12C2079.51 1573.32 2084.07 1583.57 2084.52 1595.88V1832.4C2081.79 1859.75 2066.75 1874.56 2039.4 1876.84C2026.64 1876.84 2015.48 1872.73 2005.91 1864.53C1996.79 1855.87 1992.24 1845.16 1992.24 1832.4V1595.88C1992.69 1583.12 1997.48 1572.64 2006.59 1564.43C2015.71 1555.77 2026.64 1551.45 2039.4 1551.45ZM1981.98 1462.58C1981.98 1449.82 1987.45 1438.88 1998.39 1429.77C2009.33 1420.65 2022.54 1416.09 2038.04 1416.09C2053.53 1416.09 2066.75 1420.65 2077.69 1429.77C2088.62 1438.88 2094.09 1449.82 2094.09 1462.58C2094.09 1475.79 2088.62 1486.96 2077.69 1496.07C2066.75 1505.19 2053.53 1509.75 2038.04 1509.75C2022.54 1509.75 2009.33 1505.19 1998.39 1496.07C1987.45 1486.96 1981.98 1475.79 1981.98 1462.58ZM2535.01 1465.31C2558.25 1465.77 2578.99 1473.06 2597.22 1487.19C2615.45 1501.32 2630.03 1518.18 2640.97 1537.77C2652.36 1557.37 2660.79 1578.11 2666.26 1599.98C2671.73 1621.86 2674.46 1644.19 2674.46 1666.97C2674.46 1697.05 2669.68 1726.67 2660.11 1755.84C2650.99 1784.55 2635.73 1810.07 2614.31 1832.4C2593.34 1854.73 2566.91 1866.81 2535.01 1868.63H2296.44C2264.53 1867.27 2237.87 1855.42 2216.46 1833.09C2195.04 1810.76 2179.77 1785.01 2170.65 1755.84C2162 1726.67 2157.67 1697.05 2157.67 1666.97C2157.67 1636.89 2162.22 1607.5 2171.34 1578.79C2180.45 1549.62 2195.49 1523.87 2216.46 1501.54C2237.87 1478.76 2264.53 1466.68 2296.44 1465.31H2309.42H2522.02H2535.01ZM2511.77 1777.03C2529.09 1776.12 2543.44 1769.74 2554.83 1757.89C2566.68 1745.59 2575.11 1731.46 2580.13 1715.51C2585.14 1699.56 2587.65 1683.38 2587.65 1666.97C2587.65 1650.57 2584.91 1634.62 2579.44 1619.12C2574.43 1603.17 2566.23 1589.04 2554.83 1576.74C2543.44 1564.43 2529.09 1557.83 2511.77 1556.91H2317.63C2300.31 1557.83 2285.95 1564.43 2274.56 1576.74C2263.17 1589.04 2254.74 1603.17 2249.27 1619.12C2244.25 1634.62 2241.75 1650.57 2241.75 1666.97C2241.75 1683.38 2244.25 1699.56 2249.27 1715.51C2254.28 1731.46 2262.48 1745.59 2273.88 1757.89C2285.73 1769.74 2300.31 1776.12 2317.63 1777.03H2511.77Z" fill="black"/>
<circle cx="1297" cy="1450" r="74" fill="#0048FC"/>
<circle cx="2038" cy="1450" r="74" fill="#FC0000"/>
</svg>
