<svg width="183" height="183" viewBox="0 0 183 183" fill="none" xmlns="http://www.w3.org/2000/svg">
<rect width="183" height="183" fill="white"/>
<path d="M55.6595 137.384C53.8888 137.384 52.2568 137.107 50.7635 136.552C49.2915 135.976 48.0008 135.165 46.8915 134.12C45.8035 133.075 44.9502 131.848 44.3315 130.44C43.7342 129.032 43.4355 127.485 43.4355 125.8C43.4355 124.115 43.7342 122.568 44.3315 121.16C44.9502 119.752 45.8142 118.525 46.9235 117.48C48.0328 116.435 49.3342 115.635 50.8275 115.08C52.3208 114.504 53.9635 114.216 55.7555 114.216C57.7395 114.216 59.5208 114.547 61.0995 115.208C62.6995 115.869 64.0435 116.829 65.1315 118.088L61.8035 121.16C60.9928 120.307 60.1075 119.677 59.1475 119.272C58.1875 118.845 57.1422 118.632 56.0115 118.632C54.9235 118.632 53.9315 118.803 53.0355 119.144C52.1395 119.485 51.3608 119.976 50.6995 120.616C50.0595 121.256 49.5582 122.013 49.1955 122.888C48.8542 123.763 48.6835 124.733 48.6835 125.8C48.6835 126.845 48.8542 127.805 49.1955 128.68C49.5582 129.555 50.0595 130.323 50.6995 130.984C51.3608 131.624 52.1288 132.115 53.0035 132.456C53.8995 132.797 54.8808 132.968 55.9475 132.968C56.9715 132.968 57.9635 132.808 58.9235 132.488C59.9048 132.147 60.8542 131.581 61.7715 130.792L64.7155 134.536C63.4995 135.453 62.0808 136.157 60.4595 136.648C58.8595 137.139 57.2595 137.384 55.6595 137.384ZM59.9795 133.864V125.448H64.7155V134.536L59.9795 133.864ZM76.443 137.256C75.0137 137.256 73.7337 136.979 72.603 136.424C71.4937 135.869 70.6297 135.027 70.011 133.896C69.3923 132.744 69.083 131.283 69.083 129.512V119.784H74.075V128.776C74.075 130.205 74.3737 131.261 74.971 131.944C75.5897 132.605 76.4537 132.936 77.563 132.936C78.331 132.936 79.0137 132.776 79.611 132.456C80.2083 132.115 80.6777 131.603 81.019 130.92C81.3603 130.216 81.531 129.341 81.531 128.296V119.784H86.523V137H81.787V132.264L82.651 133.64C82.075 134.835 81.2217 135.741 80.091 136.36C78.9817 136.957 77.7657 137.256 76.443 137.256ZM91.1478 137V119.784H96.1398V137H91.1478ZM93.6438 117.384C92.7264 117.384 91.9798 117.117 91.4038 116.584C90.8278 116.051 90.5398 115.389 90.5398 114.6C90.5398 113.811 90.8278 113.149 91.4038 112.616C91.9798 112.083 92.7264 111.816 93.6438 111.816C94.5611 111.816 95.3078 112.072 95.8838 112.584C96.4598 113.075 96.7478 113.715 96.7478 114.504C96.7478 115.336 96.4598 116.029 95.8838 116.584C95.3291 117.117 94.5824 117.384 93.6438 117.384ZM108.165 137.256C106.543 137.256 105.082 136.893 103.781 136.168C102.479 135.421 101.445 134.387 100.677 133.064C99.9301 131.741 99.5568 130.184 99.5568 128.392C99.5568 126.579 99.9301 125.011 100.677 123.688C101.445 122.365 102.479 121.341 103.781 120.616C105.082 119.891 106.543 119.528 108.165 119.528C109.615 119.528 110.885 119.848 111.973 120.488C113.061 121.128 113.903 122.099 114.501 123.4C115.098 124.701 115.397 126.365 115.397 128.392C115.397 130.397 115.109 132.061 114.533 133.384C113.957 134.685 113.125 135.656 112.037 136.296C110.97 136.936 109.679 137.256 108.165 137.256ZM109.029 133.16C109.839 133.16 110.575 132.968 111.237 132.584C111.898 132.2 112.421 131.656 112.805 130.952C113.21 130.227 113.413 129.373 113.413 128.392C113.413 127.389 113.21 126.536 112.805 125.832C112.421 125.128 111.898 124.584 111.237 124.2C110.575 123.816 109.839 123.624 109.029 123.624C108.197 123.624 107.45 123.816 106.789 124.2C106.127 124.584 105.594 125.128 105.189 125.832C104.805 126.536 104.613 127.389 104.613 128.392C104.613 129.373 104.805 130.227 105.189 130.952C105.594 131.656 106.127 132.2 106.789 132.584C107.45 132.968 108.197 133.16 109.029 133.16ZM113.541 137V133.48L113.637 128.36L113.317 123.272V113.256H118.309V137H113.541ZM131.473 137.256C129.51 137.256 127.782 136.872 126.289 136.104C124.817 135.336 123.676 134.291 122.865 132.968C122.054 131.624 121.649 130.099 121.649 128.392C121.649 126.664 122.044 125.139 122.833 123.816C123.644 122.472 124.742 121.427 126.129 120.68C127.516 119.912 129.084 119.528 130.833 119.528C132.518 119.528 134.033 119.891 135.377 120.616C136.742 121.32 137.82 122.344 138.609 123.688C139.398 125.011 139.793 126.6 139.793 128.456C139.793 128.648 139.782 128.872 139.761 129.128C139.74 129.363 139.718 129.587 139.697 129.8H125.713V126.888H137.073L135.153 127.752C135.153 126.856 134.972 126.077 134.609 125.416C134.246 124.755 133.745 124.243 133.105 123.88C132.465 123.496 131.718 123.304 130.865 123.304C130.012 123.304 129.254 123.496 128.593 123.88C127.953 124.243 127.452 124.765 127.089 125.448C126.726 126.109 126.545 126.899 126.545 127.816V128.584C126.545 129.523 126.748 130.355 127.153 131.08C127.58 131.784 128.166 132.328 128.913 132.712C129.681 133.075 130.577 133.256 131.601 133.256C132.518 133.256 133.318 133.117 134.001 132.84C134.705 132.563 135.345 132.147 135.921 131.592L138.577 134.472C137.788 135.368 136.796 136.061 135.601 136.552C134.406 137.021 133.03 137.256 131.473 137.256Z" fill="#1C274C"/>
<path fill-rule="evenodd" clip-rule="evenodd" d="M110.038 37.6139C105.685 37.0286 99.9642 37.0233 92 37.0233C84.0357 37.0233 78.3152 37.0286 73.9618 37.6139C69.6806 38.1895 67.0996 39.2842 65.1919 41.1919C63.2842 43.0996 62.1895 45.6806 61.6139 49.9618C61.0286 54.3152 61.0233 60.0357 61.0233 68C61.0233 75.9642 61.0286 81.6847 61.6139 86.0382C62.1895 90.3193 63.2842 92.9003 65.1919 94.8081C67.0996 96.7159 69.6806 97.8107 73.9618 98.386C78.3152 98.9714 84.0357 98.9767 92 98.9767C99.9642 98.9767 105.685 98.9714 110.038 98.386C114.319 97.8107 116.9 96.7159 118.808 94.8081C120.716 92.9003 121.811 90.3193 122.386 86.0382C122.971 81.6847 122.977 75.9642 122.977 68C122.977 60.0357 122.971 54.3152 122.386 49.9618C121.811 45.6806 120.716 43.0996 118.808 41.1919C116.9 39.2842 114.319 38.1895 110.038 37.6139ZM110.708 32.6354C115.546 33.2859 119.364 34.6433 122.36 37.6399C125.357 40.6365 126.714 44.4542 127.365 49.2924C128 54.0192 128 60.0774 128 67.8078V68.1922C128 75.9227 128 81.9807 127.365 86.7076C126.714 91.5457 125.357 95.3637 122.36 98.3602C119.364 101.357 115.546 102.714 110.708 103.365C105.981 104 99.9227 104 92.1922 104H91.8078C84.0774 104 78.0192 104 73.2924 103.365C68.4542 102.714 64.6365 101.357 61.6399 98.3602C58.6433 95.3637 57.2859 91.5457 56.6354 86.7076C55.9999 81.9807 56 75.9227 56 68.1922V67.8078C56 60.0774 55.9999 54.0192 56.6354 49.2924C57.2859 44.4542 58.6433 40.6365 61.6399 37.6399C64.6365 34.6433 68.4542 33.2859 73.2924 32.6354C78.0192 31.9999 84.0774 32 91.8078 32H92.1922C99.9227 32 105.981 31.9999 110.708 32.6354Z" fill="#1C274C"/>
<path fill-rule="evenodd" clip-rule="evenodd" d="M103.707 49.0307C108.199 47.3025 112.46 51.5821 110.739 56.0925L98.9754 86.9224C98.0493 89.3498 95.85 90.6374 93.7013 90.6875C91.5255 90.7383 89.2173 89.4962 88.4282 86.888L84.8892 75.1929C84.8715 75.1344 84.8443 75.0933 84.815 75.0641C84.7856 75.0345 84.7448 75.0072 84.6864 74.9894L73.0403 71.4358C70.4433 70.6433 69.2063 68.3251 69.2567 66.1405C69.3066 63.9824 70.5889 61.7742 73.0063 60.8439L103.707 49.0307ZM105.834 53.6983C105.779 53.6864 105.674 53.677 105.505 53.7421L74.804 65.5552C74.4398 65.6955 74.286 65.9807 74.2797 66.2575C74.2765 66.3954 74.3139 66.4782 74.3355 66.5105C74.3352 66.5101 74.3358 66.5108 74.3355 66.5105C74.345 66.5249 74.3742 66.5697 74.501 66.6084L86.1472 70.162C87.8551 70.683 89.1775 72.0113 89.6966 73.726L93.2354 85.4212C93.2739 85.5487 93.3168 85.5769 93.3312 85.5867C93.3637 85.6085 93.4471 85.6469 93.5847 85.6435C93.8604 85.6371 94.1444 85.4827 94.2838 85.1171L106.048 54.2872C106.113 54.1173 106.103 54.0115 106.091 53.9565C106.077 53.8928 106.046 53.8358 106 53.7898C105.954 53.7438 105.898 53.7122 105.834 53.6983Z" fill="#1C274C"/>
</svg>
