<svg width="2800" height="2800" viewBox="0 0 2800 2800" fill="none" xmlns="http://www.w3.org/2000/svg">
<rect width="2800" height="2800" fill="white"/>
<path d="M1823.45 1216.5C1823.45 1443.41 1638.59 1627.5 1410.37 1627.5C1182.16 1627.5 997.296 1443.41 997.296 1216.5C997.296 989.591 1182.16 805.5 1410.37 805.5C1638.59 805.5 1823.45 989.591 1823.45 1216.5Z" fill="#CACACA" stroke="#06001E" stroke-width="35"/>
<path d="M1627.73 1199.58C1615.34 1368.6 1454.13 1497.37 1264.41 1483.59C1074.69 1469.81 933.984 1319.11 946.383 1150.08C958.781 981.049 1119.99 852.281 1309.71 866.064C1499.42 879.846 1640.13 1030.55 1627.73 1199.58Z" fill="#06001E" stroke="#06001E" stroke-width="35"/>
<path d="M1878.5 1352.48C1878.5 1398.39 1841.08 1435.75 1794.75 1435.75C1748.41 1435.75 1710.99 1398.39 1710.99 1352.48C1710.99 1306.58 1748.41 1269.22 1794.75 1269.22C1841.08 1269.22 1878.5 1306.58 1878.5 1352.48Z" fill="#0048FC" stroke="#06001E" stroke-width="35"/>
<path d="M719.437 1939.6C702.637 1939.6 686.537 1937.4 671.137 1933C655.737 1928.4 643.337 1922.5 633.937 1915.3L650.437 1878.7C659.437 1885.1 670.037 1890.4 682.237 1894.6C694.637 1898.6 707.137 1900.6 719.737 1900.6C729.337 1900.6 737.037 1899.7 742.837 1897.9C748.837 1895.9 753.237 1893.2 756.037 1889.8C758.837 1886.4 760.237 1882.5 760.237 1878.1C760.237 1872.5 758.037 1868.1 753.637 1864.9C749.237 1861.5 743.437 1858.8 736.237 1856.8C729.037 1854.6 721.037 1852.6 712.237 1850.8C703.637 1848.8 694.937 1846.4 686.137 1843.6C677.537 1840.8 669.637 1837.2 662.437 1832.8C655.237 1828.4 649.337 1822.6 644.737 1815.4C640.337 1808.2 638.137 1799 638.137 1787.8C638.137 1775.8 641.337 1764.9 647.737 1755.1C654.337 1745.1 664.137 1737.2 677.137 1731.4C690.337 1725.4 706.837 1722.4 726.637 1722.4C739.837 1722.4 752.837 1724 765.637 1727.2C778.437 1730.2 789.737 1734.8 799.537 1741L784.537 1777.9C774.737 1772.3 764.937 1768.2 755.137 1765.6C745.337 1762.8 735.737 1761.4 726.337 1761.4C716.937 1761.4 709.237 1762.5 703.237 1764.7C697.237 1766.9 692.937 1769.8 690.337 1773.4C687.737 1776.8 686.437 1780.8 686.437 1785.4C686.437 1790.8 688.637 1795.2 693.037 1798.6C697.437 1801.8 703.237 1804.4 710.437 1806.4C717.637 1808.4 725.537 1810.4 734.137 1812.4C742.937 1814.4 751.637 1816.7 760.237 1819.3C769.037 1821.9 777.037 1825.4 784.237 1829.8C791.437 1834.2 797.237 1840 801.637 1847.2C806.237 1854.4 808.537 1863.5 808.537 1874.5C808.537 1886.3 805.237 1897.1 798.637 1906.9C792.037 1916.7 782.137 1924.6 768.937 1930.6C755.937 1936.6 739.437 1939.6 719.437 1939.6ZM915.246 1938.4C898.046 1938.4 882.746 1934.8 869.346 1927.6C856.146 1920.4 845.646 1910.6 837.846 1898.2C830.246 1885.6 826.446 1871.3 826.446 1855.3C826.446 1839.1 830.246 1824.8 837.846 1812.4C845.646 1799.8 856.146 1790 869.346 1783C882.746 1775.8 898.046 1772.2 915.246 1772.2C932.246 1772.2 947.446 1775.8 960.846 1783C974.246 1790 984.746 1799.7 992.346 1812.1C999.946 1824.5 1003.75 1838.9 1003.75 1855.3C1003.75 1871.3 999.946 1885.6 992.346 1898.2C984.746 1910.6 974.246 1920.4 960.846 1927.6C947.446 1934.8 932.246 1938.4 915.246 1938.4ZM915.246 1900C923.046 1900 930.046 1898.2 936.246 1894.6C942.446 1891 947.346 1885.9 950.946 1879.3C954.546 1872.5 956.346 1864.5 956.346 1855.3C956.346 1845.9 954.546 1837.9 950.946 1831.3C947.346 1824.7 942.446 1819.6 936.246 1816C930.046 1812.4 923.046 1810.6 915.246 1810.6C907.446 1810.6 900.446 1812.4 894.246 1816C888.046 1819.6 883.046 1824.7 879.246 1831.3C875.646 1837.9 873.846 1845.9 873.846 1855.3C873.846 1864.5 875.646 1872.5 879.246 1879.3C883.046 1885.9 888.046 1891 894.246 1894.6C900.446 1898.2 907.446 1900 915.246 1900ZM1040.73 1936V1771C1040.73 1752.8 1046.13 1738.3 1056.93 1727.5C1067.73 1716.5 1083.13 1711 1103.13 1711C1109.93 1711 1116.43 1711.7 1122.63 1713.1C1129.03 1714.5 1134.43 1716.7 1138.83 1719.7L1126.53 1753.6C1123.93 1751.8 1121.03 1750.4 1117.83 1749.4C1114.63 1748.4 1111.23 1747.9 1107.63 1747.9C1100.83 1747.9 1095.53 1749.9 1091.73 1753.9C1088.13 1757.7 1086.33 1763.5 1086.33 1771.3V1786.3L1087.53 1806.4V1936H1040.73ZM1015.83 1814.2V1778.2H1127.73V1814.2H1015.83ZM1217.04 1938.4C1198.04 1938.4 1183.24 1933.6 1172.64 1924C1162.04 1914.2 1156.74 1899.7 1156.74 1880.5V1738.9H1203.54V1879.9C1203.54 1886.7 1205.34 1892 1208.94 1895.8C1212.54 1899.4 1217.44 1901.2 1223.64 1901.2C1231.04 1901.2 1237.34 1899.2 1242.54 1895.2L1255.14 1928.2C1250.34 1931.6 1244.54 1934.2 1237.74 1936C1231.14 1937.6 1224.24 1938.4 1217.04 1938.4ZM1131.84 1814.2V1778.2H1243.74V1814.2H1131.84ZM1335.71 1938.4C1321.91 1938.4 1308.61 1936.8 1295.81 1933.6C1283.21 1930.2 1273.21 1926 1265.81 1921L1281.41 1887.4C1288.81 1892 1297.51 1895.8 1307.51 1898.8C1317.71 1901.6 1327.71 1903 1337.51 1903C1348.31 1903 1355.91 1901.7 1360.31 1899.1C1364.91 1896.5 1367.21 1892.9 1367.21 1888.3C1367.21 1884.5 1365.41 1881.7 1361.81 1879.9C1358.41 1877.9 1353.81 1876.4 1348.01 1875.4C1342.21 1874.4 1335.81 1873.4 1328.81 1872.4C1322.01 1871.4 1315.11 1870.1 1308.11 1868.5C1301.11 1866.7 1294.71 1864.1 1288.91 1860.7C1283.11 1857.3 1278.41 1852.7 1274.81 1846.9C1271.41 1841.1 1269.71 1833.6 1269.71 1824.4C1269.71 1814.2 1272.61 1805.2 1278.41 1797.4C1284.41 1789.6 1293.01 1783.5 1304.21 1779.1C1315.41 1774.5 1328.81 1772.2 1344.41 1772.2C1355.41 1772.2 1366.61 1773.4 1378.01 1775.8C1389.41 1778.2 1398.91 1781.7 1406.51 1786.3L1390.91 1819.6C1383.11 1815 1375.21 1811.9 1367.21 1810.3C1359.41 1808.5 1351.81 1807.6 1344.41 1807.6C1334.01 1807.6 1326.41 1809 1321.61 1811.8C1316.81 1814.6 1314.41 1818.2 1314.41 1822.6C1314.41 1826.6 1316.11 1829.6 1319.51 1831.6C1323.11 1833.6 1327.81 1835.2 1333.61 1836.4C1339.41 1837.6 1345.71 1838.7 1352.51 1839.7C1359.51 1840.5 1366.51 1841.8 1373.51 1843.6C1380.51 1845.4 1386.81 1848 1392.41 1851.4C1398.21 1854.6 1402.91 1859.1 1406.51 1864.9C1410.11 1870.5 1411.91 1877.9 1411.91 1887.1C1411.91 1897.1 1408.91 1906 1402.91 1913.8C1396.91 1921.4 1388.21 1927.4 1376.81 1931.8C1365.61 1936.2 1351.91 1938.4 1335.71 1938.4ZM1536.19 1938.4C1522.59 1938.4 1510.69 1935.4 1500.49 1929.4C1490.29 1923.4 1482.29 1914.3 1476.49 1902.1C1470.89 1889.7 1468.09 1874.1 1468.09 1855.3C1468.09 1836.3 1470.79 1820.7 1476.19 1808.5C1481.59 1796.3 1489.39 1787.2 1499.59 1781.2C1509.79 1775.2 1521.99 1772.2 1536.19 1772.2C1551.39 1772.2 1564.99 1775.7 1576.99 1782.7C1589.19 1789.5 1598.79 1799.1 1605.79 1811.5C1612.99 1823.9 1616.59 1838.5 1616.59 1855.3C1616.59 1872.3 1612.99 1887 1605.79 1899.4C1598.79 1911.8 1589.19 1921.4 1576.99 1928.2C1564.99 1935 1551.39 1938.4 1536.19 1938.4ZM1440.79 1994.2V1774.6H1485.49V1807.6L1484.59 1855.6L1487.59 1903.3V1994.2H1440.79ZM1528.09 1900C1535.89 1900 1542.79 1898.2 1548.79 1894.6C1554.99 1891 1559.89 1885.9 1563.49 1879.3C1567.29 1872.5 1569.19 1864.5 1569.19 1855.3C1569.19 1845.9 1567.29 1837.9 1563.49 1831.3C1559.89 1824.7 1554.99 1819.6 1548.79 1816C1542.79 1812.4 1535.89 1810.6 1528.09 1810.6C1520.29 1810.6 1513.29 1812.4 1507.09 1816C1500.89 1819.6 1495.99 1824.7 1492.39 1831.3C1488.79 1837.9 1486.99 1845.9 1486.99 1855.3C1486.99 1864.5 1488.79 1872.5 1492.39 1879.3C1495.99 1885.9 1500.89 1891 1507.09 1894.6C1513.29 1898.2 1520.29 1900 1528.09 1900ZM1744.28 1936V1904.5L1741.28 1897.6V1841.2C1741.28 1831.2 1738.18 1823.4 1731.98 1817.8C1725.98 1812.2 1716.68 1809.4 1704.08 1809.4C1695.48 1809.4 1686.98 1810.8 1678.58 1813.6C1670.38 1816.2 1663.38 1819.8 1657.58 1824.4L1640.78 1791.7C1649.58 1785.5 1660.18 1780.7 1672.58 1777.3C1684.98 1773.9 1697.58 1772.2 1710.38 1772.2C1734.98 1772.2 1754.08 1778 1767.68 1789.6C1781.28 1801.2 1788.08 1819.3 1788.08 1843.9V1936H1744.28ZM1695.08 1938.4C1682.48 1938.4 1671.68 1936.3 1662.68 1932.1C1653.68 1927.7 1646.78 1921.8 1641.98 1914.4C1637.18 1907 1634.78 1898.7 1634.78 1889.5C1634.78 1879.9 1637.08 1871.5 1641.68 1864.3C1646.48 1857.1 1653.98 1851.5 1664.18 1847.5C1674.38 1843.3 1687.68 1841.2 1704.08 1841.2H1746.98V1868.5H1709.18C1698.18 1868.5 1690.58 1870.3 1686.38 1873.9C1682.38 1877.5 1680.38 1882 1680.38 1887.4C1680.38 1893.4 1682.68 1898.2 1687.28 1901.8C1692.08 1905.2 1698.58 1906.9 1706.78 1906.9C1714.58 1906.9 1721.58 1905.1 1727.78 1901.5C1733.98 1897.7 1738.48 1892.2 1741.28 1885L1748.48 1906.6C1745.08 1917 1738.88 1924.9 1729.88 1930.3C1720.88 1935.7 1709.28 1938.4 1695.08 1938.4ZM1909.61 1938.4C1892.21 1938.4 1876.71 1934.9 1863.11 1927.9C1849.51 1920.7 1838.81 1910.8 1831.01 1898.2C1823.41 1885.6 1819.61 1871.3 1819.61 1855.3C1819.61 1839.1 1823.41 1824.8 1831.01 1812.4C1838.81 1799.8 1849.51 1790 1863.11 1783C1876.71 1775.8 1892.21 1772.2 1909.61 1772.2C1926.61 1772.2 1941.41 1775.8 1954.01 1783C1966.61 1790 1975.91 1800.1 1981.91 1813.3L1945.61 1832.8C1941.41 1825.2 1936.11 1819.6 1929.71 1816C1923.51 1812.4 1916.71 1810.6 1909.31 1810.6C1901.31 1810.6 1894.11 1812.4 1887.71 1816C1881.31 1819.6 1876.21 1824.7 1872.41 1831.3C1868.81 1837.9 1867.01 1845.9 1867.01 1855.3C1867.01 1864.7 1868.81 1872.7 1872.41 1879.3C1876.21 1885.9 1881.31 1891 1887.71 1894.6C1894.11 1898.2 1901.31 1900 1909.31 1900C1916.71 1900 1923.51 1898.3 1929.71 1894.9C1936.11 1891.3 1941.41 1885.6 1945.61 1877.8L1981.91 1897.6C1975.91 1910.6 1966.61 1920.7 1954.01 1927.9C1941.41 1934.9 1926.61 1938.4 1909.61 1938.4ZM2086.91 1938.4C2068.51 1938.4 2052.31 1934.8 2038.31 1927.6C2024.51 1920.4 2013.81 1910.6 2006.21 1898.2C1998.61 1885.6 1994.81 1871.3 1994.81 1855.3C1994.81 1839.1 1998.51 1824.8 2005.91 1812.4C2013.51 1799.8 2023.81 1790 2036.81 1783C2049.81 1775.8 2064.51 1772.2 2080.91 1772.2C2096.71 1772.2 2110.91 1775.6 2123.51 1782.4C2136.31 1789 2146.41 1798.6 2153.81 1811.2C2161.21 1823.6 2164.91 1838.5 2164.91 1855.9C2164.91 1857.7 2164.81 1859.8 2164.61 1862.2C2164.41 1864.4 2164.21 1866.5 2164.01 1868.5H2032.91V1841.2H2139.41L2121.41 1849.3C2121.41 1840.9 2119.71 1833.6 2116.31 1827.4C2112.91 1821.2 2108.21 1816.4 2102.21 1813C2096.21 1809.4 2089.21 1807.6 2081.21 1807.6C2073.21 1807.6 2066.11 1809.4 2059.91 1813C2053.91 1816.4 2049.21 1821.3 2045.81 1827.7C2042.41 1833.9 2040.71 1841.3 2040.71 1849.9V1857.1C2040.71 1865.9 2042.61 1873.7 2046.41 1880.5C2050.41 1887.1 2055.91 1892.2 2062.91 1895.8C2070.11 1899.2 2078.51 1900.9 2088.11 1900.9C2096.71 1900.9 2104.21 1899.6 2110.61 1897C2117.21 1894.4 2123.21 1890.5 2128.61 1885.3L2153.51 1912.3C2146.11 1920.7 2136.81 1927.2 2125.61 1931.8C2114.41 1936.2 2101.51 1938.4 2086.91 1938.4Z" fill="#06001E"/>
</svg>
